<svg xmlns="http://www.w3.org/2000/svg" xmlns:xlink="http://www.w3.org/1999/xlink" version="1.1" x="0px" y="0px" viewBox="0 0 100 125" enable-background="new 0 0 100 100" xml:space="preserve"><g><circle cx="63" cy="43" r="1.5"/><circle cx="37" cy="43" r="1.5"/><path d="M66.521,39.453l0.015-0.015l-1.573-1.573l5.451-5.451c0.78-0.78,0.78-2.048,0-2.828c-0.78-0.78-2.049-0.78-2.829,0   l-5.451,5.452l-8.601-8.601l-0.016,0.016C52.616,25.555,51.373,25,50,25s-2.616,0.555-3.519,1.451l-0.016-0.016l-8.601,8.601   l-5.451-5.452c-0.78-0.78-2.049-0.78-2.829,0c-0.78,0.78-0.78,2.048,0,2.828l5.451,5.451l-1.573,1.573l0.016,0.016   c-0.004,0.004-0.01,0.007-0.014,0.012c-1.953,1.953-1.953,5.119,0,7.07C34.44,47.512,35.72,48,37,48v5h26v-5c2.761,0,5-2.239,5-5   C68,41.613,67.434,40.359,66.521,39.453z M37,46c-1.654,0-3-1.346-3-3s1.346-3,3-3s3,1.346,3,3S38.654,46,37,46z M50,33   c-1.654,0-3-1.346-3-3s1.346-3,3-3s3,1.346,3,3S51.654,33,50,33z M63,46c-1.654,0-3-1.346-3-3s1.346-3,3-3s3,1.346,3,3   S64.654,46,63,46z"/><circle cx="50" cy="30" r="1.5"/><path d="M34,92c0,1.657,1.343,3,3,3s3-1.343,3-3V82h-6V92z"/><path d="M60,92c0,1.657,1.343,3,3,3s3-1.343,3-3V82h-6V92z"/><path d="M47,92c0,1.657,1.343,3,3,3s3-1.343,3-3V82h-6V92z"/><path d="M64,55H36c-1.1,0-2,0.9-2,2v23h32V57C66,55.9,65.1,55,64,55z M42,69c-1.104,0-2-0.896-2-2s0.896-2,2-2s2,0.896,2,2   S43.104,69,42,69z M50,69c-1.104,0-2-0.896-2-2s0.896-2,2-2s2,0.896,2,2S51.104,69,50,69z M58,69c-1.104,0-2-0.896-2-2s0.896-2,2-2   s2,0.896,2,2S59.104,69,58,69z"/><path d="M25,57v-7l-3,3l-3-3v7c0,7.183,5.817,13,13,13v-6C28.134,64,25,60.866,25,57z"/><path d="M78,53l-3-3v7c0,3.866-3.134,7-7,7v6c7.183,0,13-5.817,13-13v-7L78,53z"/></g></svg>
