<svg xmlns="http://www.w3.org/2000/svg" xmlns:xlink="http://www.w3.org/1999/xlink" version="1.1" x="0px" y="0px" viewBox="0 0 100 125" enable-background="new 0 0 100 100" xml:space="preserve"><path d="M73.5,20c0,0.828-0.672,1.5-1.5,1.5s-1.5-0.672-1.5-1.5s0.672-1.5,1.5-1.5S73.5,19.172,73.5,20z M26.5,20  c0,0.828,0.672,1.5,1.5,1.5s1.5-0.672,1.5-1.5s-0.672-1.5-1.5-1.5S26.5,19.172,26.5,20z M72,24.983V68H28V25c-2.762,0-5-2.239-5-5  s2.238-5,5-5h20V7l0,0v0c0-1.103,0.896-2,2-2c1.104,0,2,0.896,2,2v0l0,0v8h20c2.762,0,5,2.239,5,5  C77,22.705,74.689,24.895,72,24.983z M31,20c0-1.654-1.346-3-3-3s-3,1.346-3,3s1.346,3,3,3S31,21.654,31,20z M38,59.5  c0-0.828-0.672-1.5-1.5-1.5S35,58.672,35,59.5s0.672,1.5,1.5,1.5S38,60.328,38,59.5z M38,53.5c0-0.828-0.672-1.5-1.5-1.5  S35,52.672,35,53.5s0.672,1.5,1.5,1.5S38,54.328,38,53.5z M38,47.5c0-0.828-0.672-1.5-1.5-1.5S35,46.672,35,47.5s0.672,1.5,1.5,1.5  S38,48.328,38,47.5z M38,41.5c0-0.828-0.672-1.5-1.5-1.5S35,40.672,35,41.5s0.672,1.5,1.5,1.5S38,42.328,38,41.5z M38,35.5  c0-0.828-0.672-1.5-1.5-1.5S35,34.672,35,35.5s0.672,1.5,1.5,1.5S38,36.328,38,35.5z M38,29.5c0-0.828-0.672-1.5-1.5-1.5  S35,28.672,35,29.5s0.672,1.5,1.5,1.5S38,30.328,38,29.5z M44.75,59.5c0-0.828-0.672-1.5-1.5-1.5s-1.5,0.672-1.5,1.5  s0.672,1.5,1.5,1.5S44.75,60.328,44.75,59.5z M44.75,53.5c0-0.828-0.672-1.5-1.5-1.5s-1.5,0.672-1.5,1.5s0.672,1.5,1.5,1.5  S44.75,54.328,44.75,53.5z M44.75,47.5c0-0.828-0.672-1.5-1.5-1.5s-1.5,0.672-1.5,1.5s0.672,1.5,1.5,1.5S44.75,48.328,44.75,47.5z   M44.75,41.5c0-0.828-0.672-1.5-1.5-1.5s-1.5,0.672-1.5,1.5s0.672,1.5,1.5,1.5S44.75,42.328,44.75,41.5z M44.75,35.5  c0-0.828-0.672-1.5-1.5-1.5s-1.5,0.672-1.5,1.5s0.672,1.5,1.5,1.5S44.75,36.328,44.75,35.5z M44.75,29.5c0-0.828-0.672-1.5-1.5-1.5  s-1.5,0.672-1.5,1.5s0.672,1.5,1.5,1.5S44.75,30.328,44.75,29.5z M51.5,59.5c0-0.828-0.672-1.5-1.5-1.5s-1.5,0.672-1.5,1.5  S49.172,61,50,61S51.5,60.328,51.5,59.5z M51.5,53.5c0-0.828-0.672-1.5-1.5-1.5s-1.5,0.672-1.5,1.5S49.172,55,50,55  S51.5,54.328,51.5,53.5z M51.5,47.5c0-0.828-0.672-1.5-1.5-1.5s-1.5,0.672-1.5,1.5S49.172,49,50,49S51.5,48.328,51.5,47.5z   M51.5,41.5c0-0.828-0.672-1.5-1.5-1.5s-1.5,0.672-1.5,1.5S49.172,43,50,43S51.5,42.328,51.5,41.5z M51.5,35.5  c0-0.828-0.672-1.5-1.5-1.5s-1.5,0.672-1.5,1.5S49.172,37,50,37S51.5,36.328,51.5,35.5z M51.5,29.5c0-0.828-0.672-1.5-1.5-1.5  s-1.5,0.672-1.5,1.5S49.172,31,50,31S51.5,30.328,51.5,29.5z M58.25,59.5c0-0.828-0.672-1.5-1.5-1.5s-1.5,0.672-1.5,1.5  s0.672,1.5,1.5,1.5S58.25,60.328,58.25,59.5z M58.25,53.5c0-0.828-0.672-1.5-1.5-1.5s-1.5,0.672-1.5,1.5s0.672,1.5,1.5,1.5  S58.25,54.328,58.25,53.5z M58.25,47.5c0-0.828-0.672-1.5-1.5-1.5s-1.5,0.672-1.5,1.5s0.672,1.5,1.5,1.5S58.25,48.328,58.25,47.5z   M58.25,41.5c0-0.828-0.672-1.5-1.5-1.5s-1.5,0.672-1.5,1.5s0.672,1.5,1.5,1.5S58.25,42.328,58.25,41.5z M58.25,35.5  c0-0.828-0.672-1.5-1.5-1.5s-1.5,0.672-1.5,1.5s0.672,1.5,1.5,1.5S58.25,36.328,58.25,35.5z M58.25,29.5c0-0.828-0.672-1.5-1.5-1.5  s-1.5,0.672-1.5,1.5s0.672,1.5,1.5,1.5S58.25,30.328,58.25,29.5z M65,59.5c0-0.828-0.672-1.5-1.5-1.5S62,58.672,62,59.5  s0.672,1.5,1.5,1.5S65,60.328,65,59.5z M65,53.5c0-0.828-0.672-1.5-1.5-1.5S62,52.672,62,53.5s0.672,1.5,1.5,1.5S65,54.328,65,53.5z   M65,47.5c0-0.828-0.672-1.5-1.5-1.5S62,46.672,62,47.5s0.672,1.5,1.5,1.5S65,48.328,65,47.5z M65,41.5c0-0.828-0.672-1.5-1.5-1.5  S62,40.672,62,41.5s0.672,1.5,1.5,1.5S65,42.328,65,41.5z M65,35.5c0-0.828-0.672-1.5-1.5-1.5S62,34.672,62,35.5s0.672,1.5,1.5,1.5  S65,36.328,65,35.5z M65,29.5c0-0.828-0.672-1.5-1.5-1.5S62,28.672,62,29.5s0.672,1.5,1.5,1.5S65,30.328,65,29.5z M75,20  c0-1.654-1.346-3-3-3s-3,1.346-3,3s1.346,3,3,3S75,21.654,75,20z M19,67v-9l-3,3l-3-3v9c0,7.183,5.817,13,13,13v-6  C22.134,74,19,70.866,19,67z M84,61l-3-3v9c0,3.866-3.134,7-7,7v6c7.183,0,13-5.817,13-13v-9L84,61z M28,70h44v13c0,1.1-0.9,2-2,2  h-2v7c0,1.657-1.344,3-3,3s-3-1.343-3-3v-7h-9v7c0,1.657-1.344,3-3,3s-3-1.343-3-3v-7h-9v7c0,1.657-1.344,3-3,3s-3-1.343-3-3v-7h-2  c-1.1,0-2-0.9-2-2V70z M41.75,77.5c0,0.828,0.672,1.5,1.5,1.5H63.5c0.828,0,1.5-0.672,1.5-1.5S64.328,76,63.5,76H43.25  C42.422,76,41.75,76.672,41.75,77.5z M35,77.5c0,0.828,0.672,1.5,1.5,1.5s1.5-0.672,1.5-1.5S37.328,76,36.5,76S35,76.672,35,77.5z"/></svg>
